<svg width="9" height="9" viewBox="0 0 9 9" fill="none" xmlns="http://www.w3.org/2000/svg">
<path d="M7.95074 8.79926C8.18505 9.03358 8.56495 9.03358 8.79926 8.79926C9.03358 8.56495 9.03358 8.18505 8.79926 7.95074L7.95074 8.79926ZM4.25 7.025C2.71741 7.025 1.475 5.78259 1.475 4.25H0.275C0.275 6.44533 2.05467 8.225 4.25 8.225V7.025ZM1.475 4.25C1.475 2.71741 2.71741 1.475 4.25 1.475V0.275C2.05467 0.275 0.275 2.05467 0.275 4.25H1.475ZM4.25 1.475C5.78259 1.475 7.025 2.71741 7.025 4.25H8.225C8.225 2.05467 6.44533 0.275 4.25 0.275V1.475ZM7.025 4.25C7.025 5.01646 6.71505 5.70939 6.21222 6.21222L7.06075 7.06075C7.77943 6.34207 8.225 5.3475 8.225 4.25H7.025ZM6.21222 6.21222C5.70939 6.71505 5.01646 7.025 4.25 7.025V8.225C5.3475 8.225 6.34207 7.77943 7.06075 7.06075L6.21222 6.21222ZM6.21222 7.06075L7.95074 8.79926L8.79926 7.95074L7.06075 6.21222L6.21222 7.06075Z" fill="#808080"/>
</svg>
