<?xml version="1.0" encoding="utf-8"?>
<!-- Generator: Adobe Illustrator 24.1.2, SVG Export Plug-In . SVG Version: 6.00 Build 0)  -->
<svg version="1.1" id="Layer_1" xmlns="http://www.w3.org/2000/svg" xmlns:xlink="http://www.w3.org/1999/xlink" x="0px" y="0px"
	 viewBox="0 0 480 345" style="enable-background:new 0 0 480 345;" xml:space="preserve">
<style type="text/css">
	.st0{fill:#C9CAD1;}
	.st1{clip-path:url(#SVGID_2_);}
	.st2{fill:#FFFFFF;}
</style>
<path class="st0" d="M12,0h456c6.6,0,12,5.4,12,12v321c0,6.6-5.4,12-12,12H12c-6.6,0-12-5.4-12-12V12C0,5.4,5.4,0,12,0z"/>
<g>
	<defs>
		<rect id="SVGID_1_" x="200" y="133" width="80" height="80"/>
	</defs>
	<clipPath id="SVGID_2_">
		<use xlink:href="#SVGID_1_"  style="overflow:visible;"/>
	</clipPath>
	<g class="st1">
		<path class="st2" d="M220.8,194.8c-5.3,0-10.1-3.4-11.8-8.5l-0.1-0.4c-0.4-1.3-0.6-2.5-0.6-3.6v-22.7l-8.1,27
			c-1,4,1.3,8.1,5.3,9.2l51.5,13.8c0.6,0.2,1.3,0.2,1.9,0.2c3.3,0,6.4-2.2,7.2-5.5l3-9.5H220.8z"/>
		<path class="st2" d="M230,159.8c3.7,0,6.7-3,6.7-6.7s-3-6.7-6.7-6.7c-3.7,0-6.7,3-6.7,6.7S226.3,159.8,230,159.8z"/>
		<path class="st2" d="M271.7,136.4h-50c-4.6,0-8.3,3.7-8.3,8.3v36.7c0,4.6,3.7,8.3,8.3,8.3h50c4.6,0,8.3-3.7,8.3-8.3v-36.7
			C280,140.2,276.3,136.4,271.7,136.4z M221.7,143.1h50c0.9,0,1.7,0.7,1.7,1.7v23.7l-10.5-12.3c-1.1-1.3-2.7-2-4.5-2.1
			c-1.7,0-3.3,0.8-4.5,2.1l-12.4,14.9l-4-4c-2.3-2.3-6-2.3-8.3,0l-9.2,9.2v-31.5C220,143.8,220.7,143.1,221.7,143.1z"/>
	</g>
</g>
</svg>
